<svg width="25" height="30" viewBox="0 0 25 30" fill="none" xmlns="http://www.w3.org/2000/svg">
<g id="alcohol-icon">
<path id="Ellipse 1" d="M18.8571 20.5716C18.8571 25.7788 14.6358 30.0001 9.42857 30.0001C4.22132 30.0001 0 25.7788 0 20.5716C0 15.3643 8.10857 6.4287 9.42857 5.48584C10.56 6.4287 18.8571 15.3643 18.8571 20.5716Z" fill="#2D6695"/>
<path id="Ellipse 4" d="M24.6856 10.9714C24.6856 14.7585 21.6156 17.8286 17.8285 17.8286C14.0414 17.8286 10.9713 14.7585 10.9713 10.9714C10.9713 7.18433 16.8685 0.685714 17.8285 0C18.6513 0.685714 24.6856 7.18433 24.6856 10.9714Z" fill="#2D6695"/>
<path id="Ellipse 5" d="M23.4857 11.0242C23.4857 14.1194 20.9529 16.6286 17.8285 16.6286C14.7042 16.6286 12.1714 14.1194 12.1714 11.0242C12.1714 7.92894 17.0365 2.61757 17.8285 2.05713C18.5074 2.61757 23.4857 7.53698 23.4857 11.0242Z" fill="#E5E5E5"/>
<path id="C2H5OH" d="M3.01268 21.8526C2.73535 21.8526 2.48468 21.7913 2.26068 21.6686C2.03935 21.5459 1.86468 21.3766 1.73668 21.1606C1.61135 20.9419 1.54868 20.6979 1.54868 20.4286C1.54868 20.1593 1.61135 19.9166 1.73668 19.7006C1.86468 19.4819 2.04068 19.3113 2.26468 19.1886C2.48868 19.0659 2.73935 19.0046 3.01668 19.0046C3.22468 19.0046 3.41668 19.0393 3.59268 19.1086C3.76868 19.1779 3.91801 19.2793 4.04068 19.4126L3.85268 19.6006C3.63401 19.3793 3.35801 19.2686 3.02468 19.2686C2.80335 19.2686 2.60201 19.3193 2.42068 19.4206C2.23935 19.5219 2.09668 19.6606 1.99268 19.8366C1.89135 20.0126 1.84068 20.2099 1.84068 20.4286C1.84068 20.6473 1.89135 20.8446 1.99268 21.0206C2.09668 21.1966 2.23935 21.3353 2.42068 21.4366C2.60201 21.5379 2.80335 21.5886 3.02468 21.5886C3.36068 21.5886 3.63668 21.4766 3.85268 21.2526L4.04068 21.4406C3.91801 21.5739 3.76735 21.6766 3.58868 21.7486C3.41268 21.8179 3.22068 21.8526 3.01268 21.8526ZM5.71968 22.0486V22.2286H4.40768V22.0886L5.16768 21.4166C5.26635 21.3286 5.33301 21.2566 5.36768 21.2006C5.40501 21.1419 5.42368 21.0819 5.42368 21.0206C5.42368 20.9379 5.38635 20.8699 5.31168 20.8166C5.23968 20.7633 5.12901 20.7366 4.97968 20.7366C4.87568 20.7366 4.78101 20.7526 4.69568 20.7846C4.61301 20.8166 4.54501 20.8619 4.49168 20.9206L4.34368 20.8046C4.48235 20.6366 4.69835 20.5526 4.99168 20.5526C5.19968 20.5526 5.35968 20.5953 5.47168 20.6806C5.58368 20.7659 5.63968 20.8753 5.63968 21.0086C5.63968 21.0939 5.61701 21.1753 5.57168 21.2526C5.52901 21.3273 5.44768 21.4179 5.32768 21.5246L4.73568 22.0486H5.71968ZM8.73043 19.0286V21.8286H8.43843V20.5366H6.68643V21.8286H6.39043V19.0286H6.68643V20.2766H8.43843V19.0286H8.73043ZM9.94434 21.2726C10.211 21.2726 10.403 21.3153 10.5203 21.4006C10.6377 21.4833 10.6963 21.5993 10.6963 21.7486C10.6963 21.8953 10.6363 22.0139 10.5163 22.1046C10.3963 22.1979 10.2257 22.2446 10.0043 22.2446C9.86034 22.2446 9.72567 22.2246 9.60034 22.1846C9.47767 22.1473 9.38567 22.0966 9.32434 22.0326L9.41234 21.8726C9.47367 21.9286 9.55634 21.9739 9.66034 22.0086C9.767 22.0433 9.88167 22.0606 10.0043 22.0606C10.1617 22.0606 10.2803 22.0326 10.3603 21.9766C10.443 21.9206 10.4843 21.8446 10.4843 21.7486C10.4843 21.6499 10.4403 21.5766 10.3523 21.5286C10.267 21.4779 10.1203 21.4526 9.91234 21.4526H9.46434L9.56034 20.5686H10.5883V20.7486H9.73634L9.68034 21.2726H9.94434ZM12.5871 21.8526C12.3098 21.8526 12.0578 21.7913 11.8311 21.6686C11.6071 21.5433 11.4311 21.3726 11.3031 21.1566C11.1778 20.9406 11.1151 20.6979 11.1151 20.4286C11.1151 20.1593 11.1778 19.9166 11.3031 19.7006C11.4311 19.4846 11.6071 19.3153 11.8311 19.1926C12.0578 19.0673 12.3098 19.0046 12.5871 19.0046C12.8644 19.0046 13.1138 19.0659 13.3351 19.1886C13.5591 19.3113 13.7351 19.4819 13.8631 19.7006C13.9911 19.9166 14.0551 20.1593 14.0551 20.4286C14.0551 20.6979 13.9911 20.9419 13.8631 21.1606C13.7351 21.3766 13.5591 21.5459 13.3351 21.6686C13.1138 21.7913 12.8644 21.8526 12.5871 21.8526ZM12.5871 21.5886C12.8084 21.5886 13.0084 21.5393 13.1871 21.4406C13.3658 21.3393 13.5058 21.2006 13.6071 21.0246C13.7084 20.8459 13.7591 20.6473 13.7591 20.4286C13.7591 20.2099 13.7084 20.0126 13.6071 19.8366C13.5058 19.6579 13.3658 19.5193 13.1871 19.4206C13.0084 19.3193 12.8084 19.2686 12.5871 19.2686C12.3658 19.2686 12.1644 19.3193 11.9831 19.4206C11.8044 19.5193 11.6631 19.6579 11.5591 19.8366C11.4578 20.0126 11.4071 20.2099 11.4071 20.4286C11.4071 20.6473 11.4578 20.8459 11.5591 21.0246C11.6631 21.2006 11.8044 21.3393 11.9831 21.4406C12.1644 21.5393 12.3658 21.5886 12.5871 21.5886ZM17.0586 19.0286V21.8286H16.7666V20.5366H15.0146V21.8286H14.7186V19.0286H15.0146V20.2766H16.7666V19.0286H17.0586Z" fill="#E5E5E5"/>
</g>
</svg>
