<svg height="60" viewBox="0 0 222 102" fill="none" xmlns="http://www.w3.org/2000/svg">
<path d="M80.9399 18.6642C74.2092 16.8065 67.6336 14.3927 61.2767 11.4459C55.0226 8.64027 48.9853 5.34398 43.2175 1.58587L41.5838 0.541506L39.9799 1.61658C34.2121 5.3747 28.1747 8.67098 21.9206 11.4766C15.5532 14.4144 8.96769 16.8181 2.2277 18.6642L0 19.2479V44.8654C0 85.9948 40.1878 101.384 40.5739 101.537L41.5838 101.906L42.5937 101.537C43.0095 101.537 83.1676 86.0255 83.1676 44.8654V19.2479L80.9399 18.6642Z" fill="#004680"/>
<path d="M41.5799 82.5375C24.9714 82.5375 11.396 68.544 11.396 51.2852C11.396 34.0262 24.9676 20.0328 41.5799 20.0328C58.1964 20.0328 71.7717 34.0264 71.7717 51.2852C71.7717 68.5438 58.1926 82.5375 41.5799 82.5375ZM41.5838 26.0959C28.096 26.0959 17.1929 37.4286 17.1929 51.2852C17.1929 65.1419 28.104 76.4744 41.5838 76.4744C55.0637 76.4744 65.9747 65.1419 65.9747 51.2852C65.9747 37.4286 55.0717 26.0959 41.5838 26.0959Z" fill="white" stroke="#004680" stroke-width="2"/>
<path fill-rule="evenodd" clip-rule="evenodd" d="M41.5527 43.2221C32.5238 43.2221 25.5767 46.4352 22.2123 52.6801C22.3566 54.587 22.8127 56.4214 23.5222 58.1307C28.2823 55.5022 37.3657 65.5084 34.5082 69.9633C36.7693 70.7857 38.9563 71.3945 41.5137 71.3945C44.0161 71.385 46.5005 70.9561 48.8702 70.1246C46.0087 65.6697 54.8153 55.8731 59.6066 58.5581C60.3552 56.7729 60.8085 54.8705 60.9477 52.93C57.5482 46.7497 50.5231 43.2221 41.5527 43.2221ZM41.5917 55.9456C39.1551 55.9456 37.1981 53.8895 37.1981 51.3456C37.1981 48.8017 39.1551 46.7457 41.5917 46.7457C44.0049 46.7457 45.9697 48.8017 45.9697 51.3456C45.9697 53.8895 44.0049 55.9456 41.5917 55.9456Z" fill="white"/>
<path d="M106.176 29.256C104.085 29.256 102.389 28.9787 101.088 28.424C99.7867 27.848 98.8053 27.0587 98.144 26.056C97.504 25.0533 97.1307 23.9227 97.024 22.664H99.52C99.584 23.688 99.9253 24.52 100.544 25.16C101.163 25.7787 101.973 26.2373 102.976 26.536C104 26.8347 105.12 26.984 106.336 26.984C108.128 26.984 109.547 26.6747 110.592 26.056C111.637 25.416 112.16 24.4773 112.16 23.24C112.16 22.4933 111.893 21.896 111.36 21.448C110.848 20.9787 110.155 20.5947 109.28 20.296C108.427 19.9973 107.488 19.7307 106.464 19.496C105.44 19.24 104.405 18.9733 103.36 18.696C102.336 18.4187 101.387 18.0667 100.512 17.64C99.6587 17.2133 98.9653 16.6693 98.432 16.008C97.92 15.3253 97.664 14.4613 97.664 13.416C97.664 11.688 98.3253 10.28 99.648 9.192C100.992 8.104 102.987 7.56 105.632 7.56C107.509 7.56 109.056 7.848 110.272 8.424C111.488 8.97867 112.395 9.71467 112.992 10.632C113.611 11.5493 113.952 12.5413 114.016 13.608H111.552C111.424 12.5413 110.891 11.6453 109.952 10.92C109.013 10.1733 107.573 9.8 105.632 9.8C104.437 9.8 103.467 9.91733 102.72 10.152C101.973 10.3867 101.397 10.696 100.992 11.08C100.608 11.4427 100.341 11.8267 100.192 12.232C100.064 12.6373 100 13.0213 100 13.384C100 14.088 100.256 14.664 100.768 15.112C101.301 15.5387 101.995 15.9013 102.848 16.2C103.723 16.4773 104.683 16.7333 105.728 16.968C106.773 17.2027 107.808 17.4693 108.832 17.768C109.877 18.0453 110.827 18.408 111.68 18.856C112.555 19.2827 113.248 19.8373 113.76 20.52C114.293 21.2027 114.56 22.0773 114.56 23.144C114.56 25.1067 113.813 26.6213 112.32 27.688C110.827 28.7333 108.779 29.256 106.176 29.256ZM124.52 29.256C122.962 29.256 121.597 28.8933 120.424 28.168C119.272 27.4213 118.376 26.4187 117.736 25.16C117.096 23.9013 116.776 22.5147 116.776 21C116.776 19.464 117.096 18.0773 117.736 16.84C118.376 15.5813 119.272 14.5893 120.424 13.864C121.597 13.1173 122.962 12.744 124.52 12.744C125.842 12.744 126.973 13 127.912 13.512C128.872 14.024 129.65 14.7173 130.248 15.592V13H132.648V29H130.248V26.44C129.65 27.2933 128.872 27.976 127.912 28.488C126.973 29 125.842 29.256 124.52 29.256ZM124.84 27.08C126.034 27.08 127.037 26.8027 127.848 26.248C128.68 25.6933 129.309 24.9573 129.736 24.04C130.162 23.1013 130.376 22.088 130.376 21C130.376 19.8907 130.162 18.8773 129.736 17.96C129.309 17.0427 128.68 16.3067 127.848 15.752C127.037 15.1973 126.034 14.92 124.84 14.92C123.666 14.92 122.653 15.1973 121.8 15.752C120.946 16.3067 120.296 17.0427 119.848 17.96C119.4 18.8773 119.176 19.8907 119.176 21C119.176 22.088 119.4 23.1013 119.848 24.04C120.296 24.9573 120.946 25.6933 121.8 26.248C122.653 26.8027 123.666 27.08 124.84 27.08ZM137.887 29V15.112H135.135V13H137.887V11.592C137.887 9.84267 138.409 8.53067 139.455 7.656C140.521 6.78133 141.972 6.344 143.807 6.344H143.999V8.616H143.679C142.569 8.616 141.727 8.872 141.151 9.384C140.575 9.87467 140.287 10.6747 140.287 11.784V13H143.999V15.112H140.287V29H137.887ZM153.403 29.256C151.781 29.256 150.363 28.8933 149.147 28.168C147.931 27.4213 146.981 26.4187 146.299 25.16C145.637 23.9013 145.307 22.5147 145.307 21C145.307 19.464 145.627 18.0773 146.267 16.84C146.907 15.5813 147.824 14.5893 149.019 13.864C150.213 13.1173 151.621 12.744 153.243 12.744C154.885 12.744 156.293 13.1173 157.467 13.864C158.661 14.5893 159.579 15.5813 160.219 16.84C160.859 18.0773 161.179 19.464 161.179 21V21.96H147.771C147.899 22.8987 148.197 23.7627 148.667 24.552C149.157 25.32 149.808 25.9387 150.619 26.408C151.429 26.856 152.368 27.08 153.435 27.08C154.565 27.08 155.515 26.8347 156.283 26.344C157.051 25.832 157.648 25.1813 158.075 24.392H160.699C160.144 25.8213 159.259 26.9947 158.043 27.912C156.848 28.808 155.301 29.256 153.403 29.256ZM147.803 19.72H158.683C158.469 18.3547 157.893 17.2133 156.955 16.296C156.016 15.3787 154.779 14.92 153.243 14.92C151.707 14.92 150.469 15.3787 149.531 16.296C148.613 17.2133 148.037 18.3547 147.803 19.72ZM98.592 62V40.816H107.52C108.779 40.816 109.984 41.0613 111.136 41.552C112.309 42.0213 113.355 42.7147 114.272 43.632C115.189 44.5493 115.915 45.6587 116.448 46.96C116.981 48.2613 117.248 49.744 117.248 51.408C117.248 53.072 116.981 54.5547 116.448 55.856C115.915 57.1573 115.189 58.2667 114.272 59.184C113.355 60.1013 112.309 60.8053 111.136 61.296C109.984 61.7653 108.779 62 107.52 62H98.592ZM100.992 59.728H107.424C108.939 59.728 110.251 59.344 111.36 58.576C112.469 57.808 113.323 56.7947 113.92 55.536C114.539 54.2773 114.848 52.9013 114.848 51.408C114.848 49.8933 114.539 48.5067 113.92 47.248C113.323 45.9893 112.469 44.9867 111.36 44.24C110.251 43.472 108.939 43.088 107.424 43.088H100.992V59.728ZM120.58 62V46H122.98V49.936C123.065 49.6587 123.225 49.296 123.46 48.848C123.716 48.3787 124.079 47.9093 124.548 47.44C125.017 46.9707 125.604 46.576 126.308 46.256C127.033 45.9147 127.887 45.744 128.868 45.744H129.028V48.144H128.74C127.545 48.144 126.511 48.4747 125.636 49.136C124.783 49.776 124.121 50.6187 123.652 51.664C123.204 52.688 122.98 53.7867 122.98 54.96V62H120.58ZM131.515 43.312V40.176H134.107V43.312H131.515ZM131.611 62V46H134.011V62H131.611ZM142.526 62L136.254 46H138.878L143.934 59.44L148.958 46H151.582L145.342 62H142.526ZM153.734 43.312V40.176H156.326V43.312H153.734ZM153.83 62V46H156.23V62H153.83ZM160.393 62V46H162.793V48.496C163.369 47.728 164.073 47.0773 164.905 46.544C165.737 46.0107 166.803 45.744 168.105 45.744C169.214 45.744 170.249 46.0107 171.209 46.544C172.19 47.056 172.979 47.8347 173.577 48.88C174.195 49.904 174.505 51.1733 174.505 52.688V62H172.105V52.752C172.105 51.3013 171.689 50.1387 170.857 49.264C170.025 48.368 168.947 47.92 167.625 47.92C166.729 47.92 165.918 48.1227 165.193 48.528C164.467 48.9333 163.881 49.5093 163.433 50.256C163.006 50.9813 162.793 51.824 162.793 52.784V62H160.393ZM185.845 68.592C183.84 68.592 182.208 68.1547 180.95 67.28C179.691 66.4267 178.838 65.3067 178.39 63.92H181.046C181.366 64.7093 181.92 65.3173 182.71 65.744C183.499 66.192 184.502 66.416 185.718 66.416C187.552 66.416 188.886 65.9787 189.718 65.104C190.571 64.2507 190.998 63.0027 190.998 61.36V59.152C190.4 60.0053 189.622 60.6987 188.662 61.232C187.723 61.744 186.592 62 185.27 62C183.712 62 182.347 61.648 181.174 60.944C180.022 60.2187 179.126 59.2373 178.486 58C177.846 56.7627 177.526 55.3867 177.526 53.872C177.526 52.336 177.846 50.96 178.486 49.744C179.126 48.5067 180.022 47.536 181.174 46.832C182.347 46.1067 183.712 45.744 185.27 45.744C186.592 45.744 187.723 46 188.662 46.512C189.622 47.0027 190.4 47.6853 190.998 48.56V46H193.398V61.52C193.398 63.8027 192.736 65.552 191.414 66.768C190.112 67.984 188.256 68.592 185.845 68.592ZM185.59 59.824C186.763 59.824 187.755 59.5573 188.566 59.024C189.398 58.4907 190.027 57.776 190.454 56.88C190.902 55.9627 191.126 54.96 191.126 53.872C191.126 52.7627 190.902 51.76 190.454 50.864C190.027 49.968 189.398 49.2533 188.566 48.72C187.755 48.1867 186.763 47.92 185.59 47.92C184.416 47.92 183.403 48.1867 182.55 48.72C181.696 49.2533 181.046 49.968 180.598 50.864C180.15 51.76 179.926 52.7627 179.926 53.872C179.926 54.96 180.15 55.9627 180.598 56.88C181.046 57.776 181.696 58.4907 182.55 59.024C183.403 59.5573 184.416 59.824 185.59 59.824ZM106.176 95.256C104.085 95.256 102.389 94.9787 101.088 94.424C99.7867 93.848 98.8053 93.0587 98.144 92.056C97.504 91.0533 97.1307 89.9227 97.024 88.664H99.52C99.584 89.688 99.9253 90.52 100.544 91.16C101.163 91.7787 101.973 92.2373 102.976 92.536C104 92.8347 105.12 92.984 106.336 92.984C108.128 92.984 109.547 92.6747 110.592 92.056C111.637 91.416 112.16 90.4773 112.16 89.24C112.16 88.4933 111.893 87.896 111.36 87.448C110.848 86.9787 110.155 86.5947 109.28 86.296C108.427 85.9973 107.488 85.7307 106.464 85.496C105.44 85.24 104.405 84.9733 103.36 84.696C102.336 84.4187 101.387 84.0667 100.512 83.64C99.6587 83.2133 98.9653 82.6693 98.432 82.008C97.92 81.3253 97.664 80.4613 97.664 79.416C97.664 77.688 98.3253 76.28 99.648 75.192C100.992 74.104 102.987 73.56 105.632 73.56C107.509 73.56 109.056 73.848 110.272 74.424C111.488 74.9787 112.395 75.7147 112.992 76.632C113.611 77.5493 113.952 78.5413 114.016 79.608H111.552C111.424 78.5413 110.891 77.6453 109.952 76.92C109.013 76.1733 107.573 75.8 105.632 75.8C104.437 75.8 103.467 75.9173 102.72 76.152C101.973 76.3867 101.397 76.696 100.992 77.08C100.608 77.4427 100.341 77.8267 100.192 78.232C100.064 78.6373 100 79.0213 100 79.384C100 80.088 100.256 80.664 100.768 81.112C101.301 81.5387 101.995 81.9013 102.848 82.2C103.723 82.4773 104.683 82.7333 105.728 82.968C106.773 83.2027 107.808 83.4693 108.832 83.768C109.877 84.0453 110.827 84.408 111.68 84.856C112.555 85.2827 113.248 85.8373 113.76 86.52C114.293 87.2027 114.56 88.0773 114.56 89.144C114.56 91.1067 113.813 92.6213 112.32 93.688C110.827 94.7333 108.779 95.256 106.176 95.256ZM119.432 101.336L122.344 94.776L115.816 79H118.472L123.624 92.12L128.872 79H131.496L122.024 101.336H119.432ZM139.498 95.256C138.026 95.256 136.778 95.0107 135.754 94.52C134.751 94.0293 133.983 93.3893 133.45 92.6C132.916 91.7893 132.618 90.9147 132.554 89.976H135.05C135.114 90.5093 135.295 91.032 135.594 91.544C135.914 92.0347 136.394 92.44 137.034 92.76C137.674 93.0587 138.506 93.208 139.53 93.208C139.85 93.208 140.244 93.176 140.714 93.112C141.183 93.048 141.631 92.9307 142.058 92.76C142.506 92.5893 142.879 92.3333 143.178 91.992C143.476 91.6507 143.626 91.2133 143.626 90.68C143.626 90.0187 143.37 89.5067 142.858 89.144C142.346 88.7813 141.684 88.504 140.874 88.312C140.063 88.0987 139.199 87.896 138.282 87.704C137.386 87.512 136.532 87.2667 135.722 86.968C134.911 86.648 134.25 86.2107 133.738 85.656C133.226 85.08 132.97 84.3013 132.97 83.32C132.97 81.8693 133.492 80.7493 134.538 79.96C135.604 79.1493 137.172 78.744 139.242 78.744C140.65 78.744 141.791 78.968 142.666 79.416C143.562 79.8427 144.234 80.3973 144.682 81.08C145.151 81.7627 145.428 82.4987 145.514 83.288H143.082C142.996 82.6053 142.655 82.0187 142.058 81.528C141.482 81.0373 140.522 80.792 139.178 80.792C136.639 80.792 135.37 81.56 135.37 83.096C135.37 83.736 135.626 84.2267 136.138 84.568C136.65 84.9093 137.311 85.1867 138.122 85.4C138.932 85.592 139.786 85.784 140.682 85.976C141.599 86.1467 142.463 86.392 143.274 86.712C144.084 87.032 144.746 87.4907 145.258 88.088C145.77 88.664 146.026 89.4533 146.026 90.456C146.026 92.0133 145.428 93.208 144.234 94.04C143.06 94.8507 141.482 95.256 139.498 95.256ZM150.839 95V81.112H147.575V79H150.839V73.272H153.239V79H156.919V81.112H153.239V95H150.839ZM166.34 95.256C164.719 95.256 163.3 94.8933 162.084 94.168C160.868 93.4213 159.919 92.4187 159.236 91.16C158.575 89.9013 158.244 88.5147 158.244 87C158.244 85.464 158.564 84.0773 159.204 82.84C159.844 81.5813 160.762 80.5893 161.956 79.864C163.151 79.1173 164.559 78.744 166.18 78.744C167.823 78.744 169.231 79.1173 170.404 79.864C171.599 80.5893 172.516 81.5813 173.156 82.84C173.796 84.0773 174.116 85.464 174.116 87V87.96H160.708C160.836 88.8987 161.135 89.7627 161.604 90.552C162.095 91.32 162.746 91.9387 163.556 92.408C164.367 92.856 165.306 93.08 166.372 93.08C167.503 93.08 168.452 92.8347 169.22 92.344C169.988 91.832 170.586 91.1813 171.012 90.392H173.636C173.082 91.8213 172.196 92.9947 170.98 93.912C169.786 94.808 168.239 95.256 166.34 95.256ZM160.74 85.72H171.62C171.407 84.3547 170.831 83.2133 169.892 82.296C168.954 81.3787 167.716 80.92 166.18 80.92C164.644 80.92 163.407 81.3787 162.468 82.296C161.551 83.2133 160.975 84.3547 160.74 85.72ZM177.049 95V79H179.449V81.432C179.811 80.792 180.387 80.184 181.177 79.608C181.966 79.032 183.011 78.744 184.313 78.744C185.379 78.744 186.361 79.032 187.257 79.608C188.174 80.1627 188.889 80.952 189.401 81.976C189.614 81.6133 189.945 81.176 190.393 80.664C190.862 80.152 191.47 79.704 192.217 79.32C192.963 78.936 193.859 78.744 194.905 78.744C195.929 78.744 196.889 79.0107 197.785 79.544C198.681 80.0773 199.406 80.8453 199.961 81.848C200.537 82.8293 200.825 83.992 200.825 85.336V95H198.425V85.4C198.425 84.056 198.041 82.9787 197.273 82.168C196.526 81.336 195.587 80.92 194.457 80.92C193.283 80.92 192.27 81.3147 191.417 82.104C190.563 82.8933 190.137 84.0027 190.137 85.432V95H187.737V85.4C187.737 84.056 187.353 82.9787 186.585 82.168C185.838 81.336 184.899 80.92 183.769 80.92C182.595 80.92 181.582 81.3147 180.729 82.104C179.875 82.8933 179.449 84.0027 179.449 85.432V95H177.049Z" fill="#004680"/>
</svg>
