<svg height="50" viewBox="0 0 202 100" fill="none" xmlns="http://www.w3.org/2000/svg">
<path d="M80.9398 17.8788C74.2091 16.0461 67.6336 13.6647 61.2767 10.7576C55.0226 7.98974 48.9852 4.73783 43.2174 1.0303L41.5838 0L39.9798 1.06061C34.212 4.76813 28.1747 8.02005 21.9206 10.7879C15.5532 13.6862 8.96768 16.0575 2.2277 17.8788L0 18.4545V43.7273C0 84.303 40.1877 99.4848 40.5739 99.6364L41.5838 100L42.5937 99.6364C43.0095 99.6364 83.1675 84.3333 83.1675 43.7273V18.4545L80.9398 17.8788Z" fill="#FF9800"/>
<path d="M41.5799 80.8785C24.9588 80.8785 11.396 67.0669 11.396 50.0603C11.396 33.0537 24.955 19.2422 41.5799 19.2422C58.2089 19.2422 71.7716 33.0539 71.7716 50.0603C71.7716 67.0667 58.2051 80.8785 41.5799 80.8785ZM41.5838 25.1967C28.1086 25.1967 17.1929 36.3704 17.1929 50.0603C17.1929 63.7505 28.1166 74.924 41.5838 74.924C55.051 74.924 65.9747 63.7505 65.9747 50.0603C65.9747 36.3704 55.059 25.1967 41.5838 25.1967Z" fill="#FAF7F5" stroke="#FF9800" stroke-width="2"/>
<path fill-rule="evenodd" clip-rule="evenodd" d="M41.5527 42.1064C32.5238 42.1064 25.5767 45.2763 22.2123 51.4371C22.3566 53.3183 22.8127 55.128 23.5222 56.8143C28.2822 54.2212 37.3657 64.0927 34.5081 68.4876C36.7692 69.299 38.9563 69.8995 41.5137 69.8995C44.0161 69.8902 46.5004 69.4671 48.8701 68.6467C46.0086 64.2518 54.8153 54.5871 59.6065 57.2359C60.3551 55.4748 60.8084 53.598 60.9476 51.6837C57.5481 45.5865 50.5231 42.1064 41.5527 42.1064ZM41.5916 54.6587C39.1551 54.6587 37.1981 52.6303 37.1981 50.1206C37.1981 47.611 39.1551 45.5826 41.5916 45.5826C44.0048 45.5826 45.9696 47.611 45.9696 50.1206C45.9696 52.6303 44.0048 54.6587 41.5916 54.6587Z" fill="#FAF7F5"/>
<path d="M102.54 28.24C100.58 28.24 98.99 27.98 97.77 27.46C96.55 26.92 95.63 26.18 95.01 25.24C94.41 24.3 94.06 23.24 93.96 22.06H96.3C96.36 23.02 96.68 23.8 97.26 24.4C97.84 24.98 98.6 25.41 99.54 25.69C100.5 25.97 101.55 26.11 102.69 26.11C104.37 26.11 105.7 25.82 106.68 25.24C107.66 24.64 108.15 23.76 108.15 22.6C108.15 21.9 107.9 21.34 107.4 20.92C106.92 20.48 106.27 20.12 105.45 19.84C104.65 19.56 103.77 19.31 102.81 19.09C101.85 18.85 100.88 18.6 99.9 18.34C98.94 18.08 98.05 17.75 97.23 17.35C96.43 16.95 95.78 16.44 95.28 15.82C94.8 15.18 94.56 14.37 94.56 13.39C94.56 11.77 95.18 10.45 96.42 9.43C97.68 8.41 99.55 7.9 102.03 7.9C103.79 7.9 105.24 8.17 106.38 8.71C107.52 9.23 108.37 9.92 108.93 10.78C109.51 11.64 109.83 12.57 109.89 13.57H107.58C107.46 12.57 106.96 11.73 106.08 11.05C105.2 10.35 103.85 10 102.03 10C100.91 10 100 10.11 99.3 10.33C98.6 10.55 98.06 10.84 97.68 11.2C97.32 11.54 97.07 11.9 96.93 12.28C96.81 12.66 96.75 13.02 96.75 13.36C96.75 14.02 96.99 14.56 97.47 14.98C97.97 15.38 98.62 15.72 99.42 16C100.24 16.26 101.14 16.5 102.12 16.72C103.1 16.94 104.07 17.19 105.03 17.47C106.01 17.73 106.9 18.07 107.7 18.49C108.52 18.89 109.17 19.41 109.65 20.05C110.15 20.69 110.4 21.51 110.4 22.51C110.4 24.35 109.7 25.77 108.3 26.77C106.9 27.75 104.98 28.24 102.54 28.24ZM119.737 28.24C118.277 28.24 116.997 27.9 115.897 27.22C114.817 26.52 113.977 25.58 113.377 24.4C112.777 23.22 112.477 21.92 112.477 20.5C112.477 19.06 112.777 17.76 113.377 16.6C113.977 15.42 114.817 14.49 115.897 13.81C116.997 13.11 118.277 12.76 119.737 12.76C120.977 12.76 122.037 13 122.917 13.48C123.817 13.96 124.547 14.61 125.107 15.43V13H127.357V28H125.107V25.6C124.547 26.4 123.817 27.04 122.917 27.52C122.037 28 120.977 28.24 119.737 28.24ZM120.037 26.2C121.157 26.2 122.097 25.94 122.857 25.42C123.637 24.9 124.227 24.21 124.627 23.35C125.027 22.47 125.227 21.52 125.227 20.5C125.227 19.46 125.027 18.51 124.627 17.65C124.227 16.79 123.637 16.1 122.857 15.58C122.097 15.06 121.157 14.8 120.037 14.8C118.937 14.8 117.987 15.06 117.187 15.58C116.387 16.1 115.777 16.79 115.357 17.65C114.937 18.51 114.727 19.46 114.727 20.5C114.727 21.52 114.937 22.47 115.357 23.35C115.777 24.21 116.387 24.9 117.187 25.42C117.987 25.94 118.937 26.2 120.037 26.2ZM132.269 28V14.98H129.689V13H132.269V11.68C132.269 10.04 132.759 8.81 133.739 7.99C134.739 7.17 136.099 6.76 137.819 6.76H137.999V8.89H137.699C136.659 8.89 135.869 9.13 135.329 9.61C134.789 10.07 134.519 10.82 134.519 11.86V13H137.999V14.98H134.519V28H132.269ZM146.815 28.24C145.295 28.24 143.965 27.9 142.825 27.22C141.685 26.52 140.795 25.58 140.155 24.4C139.535 23.22 139.225 21.92 139.225 20.5C139.225 19.06 139.525 17.76 140.125 16.6C140.725 15.42 141.585 14.49 142.705 13.81C143.825 13.11 145.145 12.76 146.665 12.76C148.205 12.76 149.525 13.11 150.625 13.81C151.745 14.49 152.605 15.42 153.205 16.6C153.805 17.76 154.105 19.06 154.105 20.5V21.4H141.535C141.655 22.28 141.935 23.09 142.375 23.83C142.835 24.55 143.445 25.13 144.205 25.57C144.965 25.99 145.845 26.2 146.845 26.2C147.905 26.2 148.795 25.97 149.515 25.51C150.235 25.03 150.795 24.42 151.195 23.68H153.655C153.135 25.02 152.305 26.12 151.165 26.98C150.045 27.82 148.595 28.24 146.815 28.24ZM141.565 19.3H151.765C151.565 18.02 151.025 16.95 150.145 16.09C149.265 15.23 148.105 14.8 146.665 14.8C145.225 14.8 144.065 15.23 143.185 16.09C142.325 16.95 141.785 18.02 141.565 19.3ZM95.43 59V39.14H103.8C104.98 39.14 106.11 39.37 107.19 39.83C108.29 40.27 109.27 40.92 110.13 41.78C110.99 42.64 111.67 43.68 112.17 44.9C112.67 46.12 112.92 47.51 112.92 49.07C112.92 50.63 112.67 52.02 112.17 53.24C111.67 54.46 110.99 55.5 110.13 56.36C109.27 57.22 108.29 57.88 107.19 58.34C106.11 58.78 104.98 59 103.8 59H95.43ZM97.68 56.87H103.71C105.13 56.87 106.36 56.51 107.4 55.79C108.44 55.07 109.24 54.12 109.8 52.94C110.38 51.76 110.67 50.47 110.67 49.07C110.67 47.65 110.38 46.35 109.8 45.17C109.24 43.99 108.44 43.05 107.4 42.35C106.36 41.63 105.13 41.27 103.71 41.27H97.68V56.87ZM116.044 59V44H118.294V47.69C118.374 47.43 118.524 47.09 118.744 46.67C118.984 46.23 119.324 45.79 119.764 45.35C120.204 44.91 120.754 44.54 121.414 44.24C122.094 43.92 122.894 43.76 123.814 43.76H123.964V46.01H123.694C122.574 46.01 121.604 46.32 120.784 46.94C119.984 47.54 119.364 48.33 118.924 49.31C118.504 50.27 118.294 51.3 118.294 52.4V59H116.044ZM126.296 41.48V38.54H128.726V41.48H126.296ZM126.386 59V44H128.636V59H126.386ZM136.618 59L130.738 44H133.198L137.938 56.6L142.648 44H145.108L139.258 59H136.618ZM147.126 41.48V38.54H149.556V41.48H147.126ZM147.216 59V44H149.466V59H147.216ZM153.368 59V44H155.618V46.34C156.158 45.62 156.818 45.01 157.598 44.51C158.378 44.01 159.378 43.76 160.598 43.76C161.638 43.76 162.608 44.01 163.508 44.51C164.428 44.99 165.168 45.72 165.728 46.7C166.308 47.66 166.598 48.85 166.598 50.27V59H164.348V50.33C164.348 48.97 163.958 47.88 163.178 47.06C162.398 46.22 161.388 45.8 160.148 45.8C159.308 45.8 158.548 45.99 157.868 46.37C157.188 46.75 156.638 47.29 156.218 47.99C155.818 48.67 155.618 49.46 155.618 50.36V59H153.368ZM177.23 65.18C175.35 65.18 173.82 64.77 172.64 63.95C171.46 63.15 170.66 62.1 170.24 60.8H172.73C173.03 61.54 173.55 62.11 174.29 62.51C175.03 62.93 175.97 63.14 177.11 63.14C178.83 63.14 180.08 62.73 180.86 61.91C181.66 61.11 182.06 59.94 182.06 58.4V56.33C181.5 57.13 180.77 57.78 179.87 58.28C178.99 58.76 177.93 59 176.69 59C175.23 59 173.95 58.67 172.85 58.01C171.77 57.33 170.93 56.41 170.33 55.25C169.73 54.09 169.43 52.8 169.43 51.38C169.43 49.94 169.73 48.65 170.33 47.51C170.93 46.35 171.77 45.44 172.85 44.78C173.95 44.1 175.23 43.76 176.69 43.76C177.93 43.76 178.99 44 179.87 44.48C180.77 44.94 181.5 45.58 182.06 46.4V44H184.31V58.55C184.31 60.69 183.69 62.33 182.45 63.47C181.23 64.61 179.49 65.18 177.23 65.18ZM176.99 56.96C178.09 56.96 179.02 56.71 179.78 56.21C180.56 55.71 181.15 55.04 181.55 54.2C181.97 53.34 182.18 52.4 182.18 51.38C182.18 50.34 181.97 49.4 181.55 48.56C181.15 47.72 180.56 47.05 179.78 46.55C179.02 46.05 178.09 45.8 176.99 45.8C175.89 45.8 174.94 46.05 174.14 46.55C173.34 47.05 172.73 47.72 172.31 48.56C171.89 49.4 171.68 50.34 171.68 51.38C171.68 52.4 171.89 53.34 172.31 54.2C172.73 55.04 173.34 55.71 174.14 56.21C174.94 56.71 175.89 56.96 176.99 56.96ZM102.54 90.24C100.58 90.24 98.99 89.98 97.77 89.46C96.55 88.92 95.63 88.18 95.01 87.24C94.41 86.3 94.06 85.24 93.96 84.06H96.3C96.36 85.02 96.68 85.8 97.26 86.4C97.84 86.98 98.6 87.41 99.54 87.69C100.5 87.97 101.55 88.11 102.69 88.11C104.37 88.11 105.7 87.82 106.68 87.24C107.66 86.64 108.15 85.76 108.15 84.6C108.15 83.9 107.9 83.34 107.4 82.92C106.92 82.48 106.27 82.12 105.45 81.84C104.65 81.56 103.77 81.31 102.81 81.09C101.85 80.85 100.88 80.6 99.9 80.34C98.94 80.08 98.05 79.75 97.23 79.35C96.43 78.95 95.78 78.44 95.28 77.82C94.8 77.18 94.56 76.37 94.56 75.39C94.56 73.77 95.18 72.45 96.42 71.43C97.68 70.41 99.55 69.9 102.03 69.9C103.79 69.9 105.24 70.17 106.38 70.71C107.52 71.23 108.37 71.92 108.93 72.78C109.51 73.64 109.83 74.57 109.89 75.57H107.58C107.46 74.57 106.96 73.73 106.08 73.05C105.2 72.35 103.85 72 102.03 72C100.91 72 100 72.11 99.3 72.33C98.6 72.55 98.06 72.84 97.68 73.2C97.32 73.54 97.07 73.9 96.93 74.28C96.81 74.66 96.75 75.02 96.75 75.36C96.75 76.02 96.99 76.56 97.47 76.98C97.97 77.38 98.62 77.72 99.42 78C100.24 78.26 101.14 78.5 102.12 78.72C103.1 78.94 104.07 79.19 105.03 79.47C106.01 79.73 106.9 80.07 107.7 80.49C108.52 80.89 109.17 81.41 109.65 82.05C110.15 82.69 110.4 83.51 110.4 84.51C110.4 86.35 109.7 87.77 108.3 88.77C106.9 89.75 104.98 90.24 102.54 90.24ZM114.967 95.94L117.697 89.79L111.577 75H114.067L118.897 87.3L123.817 75H126.277L117.397 95.94H114.967ZM133.779 90.24C132.399 90.24 131.229 90.01 130.269 89.55C129.329 89.09 128.609 88.49 128.109 87.75C127.609 86.99 127.329 86.17 127.269 85.29H129.609C129.669 85.79 129.839 86.28 130.119 86.76C130.419 87.22 130.869 87.6 131.469 87.9C132.069 88.18 132.849 88.32 133.809 88.32C134.109 88.32 134.479 88.29 134.919 88.23C135.359 88.17 135.779 88.06 136.179 87.9C136.599 87.74 136.949 87.5 137.229 87.18C137.509 86.86 137.649 86.45 137.649 85.95C137.649 85.33 137.409 84.85 136.929 84.51C136.449 84.17 135.829 83.91 135.069 83.73C134.309 83.53 133.499 83.34 132.639 83.16C131.799 82.98 130.999 82.75 130.239 82.47C129.479 82.17 128.859 81.76 128.379 81.24C127.899 80.7 127.659 79.97 127.659 79.05C127.659 77.69 128.149 76.64 129.129 75.9C130.129 75.14 131.599 74.76 133.539 74.76C134.859 74.76 135.929 74.97 136.749 75.39C137.589 75.79 138.219 76.31 138.639 76.95C139.079 77.59 139.339 78.28 139.419 79.02H137.139C137.059 78.38 136.739 77.83 136.179 77.37C135.639 76.91 134.739 76.68 133.479 76.68C131.099 76.68 129.909 77.4 129.909 78.84C129.909 79.44 130.149 79.9 130.629 80.22C131.109 80.54 131.729 80.8 132.489 81C133.249 81.18 134.049 81.36 134.889 81.54C135.749 81.7 136.559 81.93 137.319 82.23C138.079 82.53 138.699 82.96 139.179 83.52C139.659 84.06 139.899 84.8 139.899 85.74C139.899 87.2 139.339 88.32 138.219 89.1C137.119 89.86 135.639 90.24 133.779 90.24ZM144.412 90V76.98H141.352V75H144.412V69.63H146.662V75H150.112V76.98H146.662V90H144.412ZM158.944 90.24C157.424 90.24 156.094 89.9 154.954 89.22C153.814 88.52 152.924 87.58 152.284 86.4C151.664 85.22 151.354 83.92 151.354 82.5C151.354 81.06 151.654 79.76 152.254 78.6C152.854 77.42 153.714 76.49 154.834 75.81C155.954 75.11 157.274 74.76 158.794 74.76C160.334 74.76 161.654 75.11 162.754 75.81C163.874 76.49 164.734 77.42 165.334 78.6C165.934 79.76 166.234 81.06 166.234 82.5V83.4H153.664C153.784 84.28 154.064 85.09 154.504 85.83C154.964 86.55 155.574 87.13 156.334 87.57C157.094 87.99 157.974 88.2 158.974 88.2C160.034 88.2 160.924 87.97 161.644 87.51C162.364 87.03 162.924 86.42 163.324 85.68H165.784C165.264 87.02 164.434 88.12 163.294 88.98C162.174 89.82 160.724 90.24 158.944 90.24ZM153.694 81.3H163.894C163.694 80.02 163.154 78.95 162.274 78.09C161.394 77.23 160.234 76.8 158.794 76.8C157.354 76.8 156.194 77.23 155.314 78.09C154.454 78.95 153.914 80.02 153.694 81.3ZM168.983 90V75H171.233V77.28C171.573 76.68 172.113 76.11 172.853 75.57C173.593 75.03 174.573 74.76 175.793 74.76C176.793 74.76 177.713 75.03 178.553 75.57C179.413 76.09 180.083 76.83 180.563 77.79C180.763 77.45 181.073 77.04 181.493 76.56C181.933 76.08 182.503 75.66 183.203 75.3C183.903 74.94 184.743 74.76 185.723 74.76C186.683 74.76 187.583 75.01 188.423 75.51C189.263 76.01 189.943 76.73 190.463 77.67C191.003 78.59 191.273 79.68 191.273 80.94V90H189.023V81C189.023 79.74 188.663 78.73 187.943 77.97C187.243 77.19 186.363 76.8 185.303 76.8C184.203 76.8 183.253 77.17 182.453 77.91C181.653 78.65 181.253 79.69 181.253 81.03V90H179.003V81C179.003 79.74 178.643 78.73 177.923 77.97C177.223 77.19 176.343 76.8 175.283 76.8C174.183 76.8 173.233 77.17 172.433 77.91C171.633 78.65 171.233 79.69 171.233 81.03V90H168.983Z" fill="#FF9800"/>
</svg>
