<svg width="178" height="101" viewBox="0 0 178 101" fill="none" xmlns="http://www.w3.org/2000/svg">
<path d="M61.4715 26.0515C56.3597 24.7136 51.3658 22.9752 46.5379 20.853C41.7881 18.8325 37.2029 16.4586 32.8224 13.7521L31.5817 13L30.3636 13.7742C25.9831 16.4807 21.3979 18.8546 16.6481 20.8752C11.8122 22.9909 6.8107 24.722 1.69188 26.0515L0 26.4718V44.9209C0 74.5412 30.5215 85.6239 30.8147 85.7346L31.5817 86L32.3487 85.7346C32.6645 85.7346 63.1634 74.5633 63.1634 44.9209V26.4718L61.4715 26.0515Z" fill="white"/>
<path d="M31.5788 71.7714C19.0557 71.7714 8.89551 61.7777 8.89551 49.5442C8.89551 37.3105 19.0528 27.3169 31.5788 27.3169C44.1081 27.3169 54.2681 37.3108 54.2681 49.5442C54.2681 61.7775 44.1052 71.7714 31.5788 71.7714ZM31.5818 31.1237C21.2476 31.1237 12.8171 39.3693 12.8171 49.5442C12.8171 59.7193 21.2538 67.9646 31.5818 67.9646C41.9098 67.9646 50.3465 59.7193 50.3465 49.5442C50.3465 39.3693 41.9159 31.1237 31.5818 31.1237Z" fill="#002A4D" stroke="white" stroke-width="2"/>
<path fill-rule="evenodd" clip-rule="evenodd" d="M31.5581 43.7373C24.7009 43.7373 19.4248 46.0513 16.8696 50.5487C16.9792 51.922 17.3256 53.2431 17.8645 54.4741C21.4796 52.5811 28.3782 59.7874 26.2079 62.9956C27.9252 63.5879 29.5862 64.0263 31.5285 64.0263C33.429 64.0195 35.3158 63.7106 37.1155 63.1118C34.9423 59.9035 41.6307 52.8482 45.2695 54.7819C45.838 53.4963 46.1823 52.1262 46.288 50.7287C43.7062 46.2778 38.3709 43.7373 31.5581 43.7373ZM31.5877 52.9005C29.7372 52.9005 28.2509 51.4197 28.2509 49.5877C28.2509 47.7556 29.7372 46.2749 31.5877 46.2749C33.4204 46.2749 34.9127 47.7556 34.9127 49.5877C34.9127 51.4197 33.4204 52.9005 31.5877 52.9005Z" fill="#002A4D"/>
<path d="M80.1368 32.2C78.5034 32.2 77.1784 31.9833 76.1618 31.55C75.1451 31.1 74.3784 30.4833 73.8618 29.7C73.3618 28.9167 73.0701 28.0333 72.9868 27.05H74.9368C74.9868 27.85 75.2534 28.5 75.7368 29C76.2201 29.4833 76.8534 29.8417 77.6368 30.075C78.4368 30.3083 79.3118 30.425 80.2618 30.425C81.6618 30.425 82.7701 30.1833 83.5868 29.7C84.4034 29.2 84.8118 28.4667 84.8118 27.5C84.8118 26.9167 84.6034 26.45 84.1868 26.1C83.7868 25.7333 83.2451 25.4333 82.5618 25.2C81.8951 24.9667 81.1618 24.7583 80.3618 24.575C79.5618 24.375 78.7534 24.1667 77.9368 23.95C77.1368 23.7333 76.3951 23.4583 75.7118 23.125C75.0451 22.7917 74.5034 22.3667 74.0868 21.85C73.6868 21.3167 73.4868 20.6417 73.4868 19.825C73.4868 18.475 74.0034 17.375 75.0368 16.525C76.0868 15.675 77.6451 15.25 79.7118 15.25C81.1784 15.25 82.3868 15.475 83.3368 15.925C84.2868 16.3583 84.9951 16.9333 85.4618 17.65C85.9451 18.3667 86.2118 19.1417 86.2618 19.975H84.3368C84.2368 19.1417 83.8201 18.4417 83.0868 17.875C82.3534 17.2917 81.2284 17 79.7118 17C78.7784 17 78.0201 17.0917 77.4368 17.275C76.8534 17.4583 76.4034 17.7 76.0868 18C75.7868 18.2833 75.5784 18.5833 75.4618 18.9C75.3618 19.2167 75.3118 19.5167 75.3118 19.8C75.3118 20.35 75.5118 20.8 75.9118 21.15C76.3284 21.4833 76.8701 21.7667 77.5368 22C78.2201 22.2167 78.9701 22.4167 79.7868 22.6C80.6034 22.7833 81.4118 22.9917 82.2118 23.225C83.0284 23.4417 83.7701 23.725 84.4368 24.075C85.1201 24.4083 85.6618 24.8417 86.0618 25.375C86.4784 25.9083 86.6868 26.5917 86.6868 27.425C86.6868 28.9583 86.1034 30.1417 84.9368 30.975C83.7701 31.7917 82.1701 32.2 80.1368 32.2ZM94.4676 32.2C93.251 32.2 92.1843 31.9167 91.2676 31.35C90.3676 30.7667 89.6676 29.9833 89.1676 29C88.6676 28.0167 88.4176 26.9333 88.4176 25.75C88.4176 24.55 88.6676 23.4667 89.1676 22.5C89.6676 21.5167 90.3676 20.7417 91.2676 20.175C92.1843 19.5917 93.251 19.3 94.4676 19.3C95.501 19.3 96.3843 19.5 97.1176 19.9C97.8676 20.3 98.476 20.8417 98.9426 21.525V19.5H100.818V32H98.9426V30C98.476 30.6667 97.8676 31.2 97.1176 31.6C96.3843 32 95.501 32.2 94.4676 32.2ZM94.7176 30.5C95.651 30.5 96.4343 30.2833 97.0676 29.85C97.7176 29.4167 98.2093 28.8417 98.5426 28.125C98.876 27.3917 99.0426 26.6 99.0426 25.75C99.0426 24.8833 98.876 24.0917 98.5426 23.375C98.2093 22.6583 97.7176 22.0833 97.0676 21.65C96.4343 21.2167 95.651 21 94.7176 21C93.801 21 93.0093 21.2167 92.3426 21.65C91.676 22.0833 91.1676 22.6583 90.8176 23.375C90.4676 24.0917 90.2926 24.8833 90.2926 25.75C90.2926 26.6 90.4676 27.3917 90.8176 28.125C91.1676 28.8417 91.676 29.4167 92.3426 29.85C93.0093 30.2833 93.801 30.5 94.7176 30.5ZM104.911 32V21.15H102.761V19.5H104.911V18.4C104.911 17.0333 105.319 16.0083 106.136 15.325C106.969 14.6417 108.102 14.3 109.536 14.3H109.686V16.075H109.436C108.569 16.075 107.911 16.275 107.461 16.675C107.011 17.0583 106.786 17.6833 106.786 18.55V19.5H109.686V21.15H106.786V32H104.911ZM117.033 32.2C115.766 32.2 114.658 31.9167 113.708 31.35C112.758 30.7667 112.016 29.9833 111.483 29C110.966 28.0167 110.708 26.9333 110.708 25.75C110.708 24.55 110.958 23.4667 111.458 22.5C111.958 21.5167 112.674 20.7417 113.608 20.175C114.541 19.5917 115.641 19.3 116.908 19.3C118.191 19.3 119.291 19.5917 120.208 20.175C121.141 20.7417 121.858 21.5167 122.358 22.5C122.858 23.4667 123.108 24.55 123.108 25.75V26.5H112.633C112.733 27.2333 112.966 27.9083 113.333 28.525C113.716 29.125 114.224 29.6083 114.858 29.975C115.491 30.325 116.224 30.5 117.058 30.5C117.941 30.5 118.683 30.3083 119.283 29.925C119.883 29.525 120.349 29.0167 120.683 28.4H122.733C122.299 29.5167 121.608 30.4333 120.658 31.15C119.724 31.85 118.516 32.2 117.033 32.2ZM112.658 24.75H121.158C120.991 23.6833 120.541 22.7917 119.808 22.075C119.074 21.3583 118.108 21 116.908 21C115.708 21 114.741 21.3583 114.008 22.075C113.291 22.7917 112.841 23.6833 112.658 24.75ZM74.2118 58V41.45H81.1868C82.1701 41.45 83.1118 41.6417 84.0118 42.025C84.9284 42.3917 85.7451 42.9333 86.4618 43.65C87.1784 44.3667 87.7451 45.2333 88.1618 46.25C88.5784 47.2667 88.7868 48.425 88.7868 49.725C88.7868 51.025 88.5784 52.1833 88.1618 53.2C87.7451 54.2167 87.1784 55.0833 86.4618 55.8C85.7451 56.5167 84.9284 57.0667 84.0118 57.45C83.1118 57.8167 82.1701 58 81.1868 58H74.2118ZM76.0868 56.225H81.1118C82.2951 56.225 83.3201 55.925 84.1868 55.325C85.0534 54.725 85.7201 53.9333 86.1868 52.95C86.6701 51.9667 86.9118 50.8917 86.9118 49.725C86.9118 48.5417 86.6701 47.4583 86.1868 46.475C85.7201 45.4917 85.0534 44.7083 84.1868 44.125C83.3201 43.525 82.2951 43.225 81.1118 43.225H76.0868V56.225ZM91.3899 58V45.5H93.2649V48.575C93.3316 48.3583 93.4566 48.075 93.6399 47.725C93.8399 47.3583 94.1232 46.9917 94.4899 46.625C94.8566 46.2583 95.3149 45.95 95.8649 45.7C96.4316 45.4333 97.0982 45.3 97.8649 45.3H97.9899V47.175H97.7649C96.8316 47.175 96.0232 47.4333 95.3399 47.95C94.6732 48.45 94.1566 49.1083 93.7899 49.925C93.4399 50.725 93.2649 51.5833 93.2649 52.5V58H91.3899ZM99.9331 43.4V40.95H101.958V43.4H99.9331ZM100.008 58V45.5H101.883V58H100.008ZM108.535 58L103.635 45.5H105.685L109.635 56L113.56 45.5H115.61L110.735 58H108.535ZM117.291 43.4V40.95H119.316V43.4H117.291ZM117.366 58V45.5H119.241V58H117.366ZM122.493 58V45.5H124.368V47.45C124.818 46.85 125.368 46.3417 126.018 45.925C126.668 45.5083 127.502 45.3 128.518 45.3C129.385 45.3 130.193 45.5083 130.943 45.925C131.71 46.325 132.327 46.9333 132.793 47.75C133.277 48.55 133.518 49.5417 133.518 50.725V58H131.643V50.775C131.643 49.6417 131.318 48.7333 130.668 48.05C130.018 47.35 129.177 47 128.143 47C127.443 47 126.81 47.1583 126.243 47.475C125.677 47.7917 125.218 48.2417 124.868 48.825C124.535 49.3917 124.368 50.05 124.368 50.8V58H122.493ZM142.379 63.15C140.812 63.15 139.537 62.8083 138.554 62.125C137.57 61.4583 136.904 60.5833 136.554 59.5H138.629C138.879 60.1167 139.312 60.5917 139.929 60.925C140.545 61.275 141.329 61.45 142.279 61.45C143.712 61.45 144.754 61.1083 145.404 60.425C146.07 59.7583 146.404 58.7833 146.404 57.5V55.775C145.937 56.4417 145.329 56.9833 144.579 57.4C143.845 57.8 142.962 58 141.929 58C140.712 58 139.645 57.725 138.729 57.175C137.829 56.6083 137.129 55.8417 136.629 54.875C136.129 53.9083 135.879 52.8333 135.879 51.65C135.879 50.45 136.129 49.375 136.629 48.425C137.129 47.4583 137.829 46.7 138.729 46.15C139.645 45.5833 140.712 45.3 141.929 45.3C142.962 45.3 143.845 45.5 144.579 45.9C145.329 46.2833 145.937 46.8167 146.404 47.5V45.5H148.279V57.625C148.279 59.4083 147.762 60.775 146.729 61.725C145.712 62.675 144.262 63.15 142.379 63.15ZM142.179 56.3C143.095 56.3 143.87 56.0917 144.504 55.675C145.154 55.2583 145.645 54.7 145.979 54C146.329 53.2833 146.504 52.5 146.504 51.65C146.504 50.7833 146.329 50 145.979 49.3C145.645 48.6 145.154 48.0417 144.504 47.625C143.87 47.2083 143.095 47 142.179 47C141.262 47 140.47 47.2083 139.804 47.625C139.137 48.0417 138.629 48.6 138.279 49.3C137.929 50 137.754 50.7833 137.754 51.65C137.754 52.5 137.929 53.2833 138.279 54C138.629 54.7 139.137 55.2583 139.804 55.675C140.47 56.0917 141.262 56.3 142.179 56.3ZM80.1368 84.2C78.5034 84.2 77.1784 83.9833 76.1618 83.55C75.1451 83.1 74.3784 82.4833 73.8618 81.7C73.3618 80.9167 73.0701 80.0333 72.9868 79.05H74.9368C74.9868 79.85 75.2534 80.5 75.7368 81C76.2201 81.4833 76.8534 81.8417 77.6368 82.075C78.4368 82.3083 79.3118 82.425 80.2618 82.425C81.6618 82.425 82.7701 82.1833 83.5868 81.7C84.4034 81.2 84.8118 80.4667 84.8118 79.5C84.8118 78.9167 84.6034 78.45 84.1868 78.1C83.7868 77.7333 83.2451 77.4333 82.5618 77.2C81.8951 76.9667 81.1618 76.7583 80.3618 76.575C79.5618 76.375 78.7534 76.1667 77.9368 75.95C77.1368 75.7333 76.3951 75.4583 75.7118 75.125C75.0451 74.7917 74.5034 74.3667 74.0868 73.85C73.6868 73.3167 73.4868 72.6417 73.4868 71.825C73.4868 70.475 74.0034 69.375 75.0368 68.525C76.0868 67.675 77.6451 67.25 79.7118 67.25C81.1784 67.25 82.3868 67.475 83.3368 67.925C84.2868 68.3583 84.9951 68.9333 85.4618 69.65C85.9451 70.3667 86.2118 71.1417 86.2618 71.975H84.3368C84.2368 71.1417 83.8201 70.4417 83.0868 69.875C82.3534 69.2917 81.2284 69 79.7118 69C78.7784 69 78.0201 69.0917 77.4368 69.275C76.8534 69.4583 76.4034 69.7 76.0868 70C75.7868 70.2833 75.5784 70.5833 75.4618 70.9C75.3618 71.2167 75.3118 71.5167 75.3118 71.8C75.3118 72.35 75.5118 72.8 75.9118 73.15C76.3284 73.4833 76.8701 73.7667 77.5368 74C78.2201 74.2167 78.9701 74.4167 79.7868 74.6C80.6034 74.7833 81.4118 74.9917 82.2118 75.225C83.0284 75.4417 83.7701 75.725 84.4368 76.075C85.1201 76.4083 85.6618 76.8417 86.0618 77.375C86.4784 77.9083 86.6868 78.5917 86.6868 79.425C86.6868 80.9583 86.1034 82.1417 84.9368 82.975C83.7701 83.7917 82.1701 84.2 80.1368 84.2ZM90.4926 88.95L92.7676 83.825L87.6676 71.5H89.7426L93.7676 81.75L97.8676 71.5H99.9176L92.5176 88.95H90.4926ZM106.169 84.2C105.019 84.2 104.044 84.0083 103.244 83.625C102.461 83.2417 101.861 82.7417 101.444 82.125C101.028 81.4917 100.794 80.8083 100.744 80.075H102.694C102.744 80.4917 102.886 80.9 103.119 81.3C103.369 81.6833 103.744 82 104.244 82.25C104.744 82.4833 105.394 82.6 106.194 82.6C106.444 82.6 106.753 82.575 107.119 82.525C107.486 82.475 107.836 82.3833 108.169 82.25C108.519 82.1167 108.811 81.9167 109.044 81.65C109.278 81.3833 109.394 81.0417 109.394 80.625C109.394 80.1083 109.194 79.7083 108.794 79.425C108.394 79.1417 107.878 78.925 107.244 78.775C106.611 78.6083 105.936 78.45 105.219 78.3C104.519 78.15 103.853 77.9583 103.219 77.725C102.586 77.475 102.069 77.1333 101.669 76.7C101.269 76.25 101.069 75.6417 101.069 74.875C101.069 73.7417 101.478 72.8667 102.294 72.25C103.128 71.6167 104.353 71.3 105.969 71.3C107.069 71.3 107.961 71.475 108.644 71.825C109.344 72.1583 109.869 72.5917 110.219 73.125C110.586 73.6583 110.803 74.2333 110.869 74.85H108.969C108.903 74.3167 108.636 73.8583 108.169 73.475C107.719 73.0917 106.969 72.9 105.919 72.9C103.936 72.9 102.944 73.5 102.944 74.7C102.944 75.2 103.144 75.5833 103.544 75.85C103.944 76.1167 104.461 76.3333 105.094 76.5C105.728 76.65 106.394 76.8 107.094 76.95C107.811 77.0833 108.486 77.275 109.119 77.525C109.753 77.775 110.269 78.1333 110.669 78.6C111.069 79.05 111.269 79.6667 111.269 80.45C111.269 81.6667 110.803 82.6 109.869 83.25C108.953 83.8833 107.719 84.2 106.169 84.2ZM115.03 84V73.15H112.48V71.5H115.03V67.025H116.905V71.5H119.78V73.15H116.905V84H115.03ZM127.14 84.2C125.873 84.2 124.765 83.9167 123.815 83.35C122.865 82.7667 122.123 81.9833 121.59 81C121.073 80.0167 120.815 78.9333 120.815 77.75C120.815 76.55 121.065 75.4667 121.565 74.5C122.065 73.5167 122.782 72.7417 123.715 72.175C124.648 71.5917 125.748 71.3 127.015 71.3C128.298 71.3 129.398 71.5917 130.315 72.175C131.248 72.7417 131.965 73.5167 132.465 74.5C132.965 75.4667 133.215 76.55 133.215 77.75V78.5H122.74C122.84 79.2333 123.073 79.9083 123.44 80.525C123.823 81.125 124.332 81.6083 124.965 81.975C125.598 82.325 126.332 82.5 127.165 82.5C128.048 82.5 128.79 82.3083 129.39 81.925C129.99 81.525 130.457 81.0167 130.79 80.4H132.84C132.407 81.5167 131.715 82.4333 130.765 83.15C129.832 83.85 128.623 84.2 127.14 84.2ZM122.765 76.75H131.265C131.098 75.6833 130.648 74.7917 129.915 74.075C129.182 73.3583 128.215 73 127.015 73C125.815 73 124.848 73.3583 124.115 74.075C123.398 74.7917 122.948 75.6833 122.765 76.75ZM135.506 84V71.5H137.381V73.4C137.664 72.9 138.114 72.425 138.731 71.975C139.348 71.525 140.164 71.3 141.181 71.3C142.014 71.3 142.781 71.525 143.481 71.975C144.198 72.4083 144.756 73.025 145.156 73.825C145.323 73.5417 145.581 73.2 145.931 72.8C146.298 72.4 146.773 72.05 147.356 71.75C147.939 71.45 148.639 71.3 149.456 71.3C150.256 71.3 151.006 71.5083 151.706 71.925C152.406 72.3417 152.973 72.9417 153.406 73.725C153.856 74.4917 154.081 75.4 154.081 76.45V84H152.206V76.5C152.206 75.45 151.906 74.6083 151.306 73.975C150.723 73.325 149.989 73 149.106 73C148.189 73 147.398 73.3083 146.731 73.925C146.064 74.5417 145.731 75.4083 145.731 76.525V84H143.856V76.5C143.856 75.45 143.556 74.6083 142.956 73.975C142.373 73.325 141.639 73 140.756 73C139.839 73 139.048 73.3083 138.381 73.925C137.714 74.5417 137.381 75.4083 137.381 76.525V84H135.506Z" fill="white"/>
</svg>
