<svg id="SvgjsSvg1001" width="288" height="288" xmlns="http://www.w3.org/2000/svg" version="1.1" xmlns:xlink="http://www.w3.org/1999/xlink" xmlns:svgjs="http://svgjs.com/svgjs"><defs id="SvgjsDefs1002"></defs><g id="SvgjsG1008" transform="matrix(0.9167,0,0,0.9167,11.981023899841318,11.245499046707153)"><svg xmlns="http://www.w3.org/2000/svg" width="288" height="288" viewBox="0 0 16 16"><path fill-rule="evenodd" d="M 4.484375 4 A 0.50005 0.50005 0 0 0 4.5351562 5 L 11.464844 5 A 0.50005 0.50005 0 1 0 11.464844 4 L 4.5351562 4 A 0.50005 0.50005 0 0 0 4.484375 4 z M 4.484375 7 A 0.50005 0.50005 0 0 0 4.5351562 8 L 11.464844 8 A 0.50005 0.50005 0 1 0 11.464844 7 L 4.5351562 7 A 0.50005 0.50005 0 0 0 4.484375 7 z M 4.484375 10 A 0.50005 0.50005 0 0 0 4.5351562 11 L 11.464844 11 A 0.50005 0.50005 0 1 0 11.464844 10 L 4.5351562 10 A 0.50005 0.50005 0 0 0 4.484375 10 z " color="#000" enable-background="accumulate" font-family="sans-serif" font-weight="400" overflow="visible" style="line-height:normal;text-indent:0;text-align:start;text-decoration-line:none;text-decoration-style:solid;text-decoration-color:#000;text-transform:none;block-progression:tb;white-space:normal;isolation:auto;mix-blend-mode:normal;solid-color:#000;solid-opacity:1" fill="#004680" class="color000 svgShape"></path></svg></g></svg>