<svg width="150" height="150" viewBox="0 0 150 150" fill="none" xmlns="http://www.w3.org/2000/svg">
<path d="M104.86 112.5C111.063 112.5 116.092 107.471 116.092 101.268C116.092 95.0641 111.063 90.0352 104.86 90.0352C98.656 90.0352 93.6271 95.0641 93.6271 101.268C93.6271 107.471 98.656 112.5 104.86 112.5Z" fill="#004680"/>
<path d="M120.585 67.5701H108.604C104.111 47.3517 84.6412 33.8728 64.4228 38.3658C49.4462 41.3611 37.4649 52.5935 34.4696 67.5701H29.2278C21.7395 67.5701 15 74.3096 15 81.7979V91.5327C15 96.7745 19.493 101.267 24.7348 101.267H26.9813C26.9813 91.5327 35.2184 83.2956 44.9532 83.2956C54.688 83.2956 62.9251 91.5327 62.9251 101.267H86.8877C86.8877 91.5327 95.1248 83.2956 104.86 83.2956C114.594 83.2956 122.832 91.5327 122.832 101.267H125.078C130.32 101.267 134.813 96.7745 134.813 91.5327V82.5467C134.813 74.3096 128.073 67.5701 120.585 67.5701ZM46.4509 67.5701C50.195 53.3424 65.1716 45.8541 78.6505 49.5982C86.8877 51.8447 93.6271 58.5842 96.6225 67.5701H46.4509ZM44.9532 90.035C38.9626 90.035 33.7207 95.2768 33.7207 101.267C33.7207 107.258 38.9626 112.5 44.9532 112.5C50.9438 112.5 56.1856 107.258 56.1856 101.267C56.1856 95.2768 50.9438 90.035 44.9532 90.035Z" fill="#004680"/>
</svg>
