<svg viewBox="0 0 101 139" fill="none" xmlns="http://www.w3.org/2000/svg">
<path d="M100.262 81.2386C102.096 111.208 82.6368 137.895 51.9988 137.895C21.3608 137.895 0.381415 118.632 0.381348 81.2386C3.70985 35.3469 46.4256 27.415 33.692 0.21991C33.692 7.01868 96.9335 26.8484 100.262 81.2386Z" fill="#FF9800"/>
<path d="M64.7324 110.133C64.7324 125.778 64.7324 138.461 50.3089 138.461C35.8854 138.461 35.8853 125.778 35.8854 110.133C35.8854 94.488 50.3089 80.6719 50.3089 80.6719C50.3089 80.6719 64.7324 94.488 64.7324 110.133Z" fill="#FAF7F5"/>
<path d="M41.4329 33.6472C41.4329 49.2924 35.4115 60.2757 29.2839 60.2757C18.189 60.2757 16.802 38.1797 20.3524 33.6472C31.4474 19.4831 37.5497 26.8484 29.2839 5.31892C32.5569 -12.2445 41.4329 18.0019 41.4329 33.6472Z" fill="#FAF7F5"/>
</svg>
