<svg viewBox="0 0 20 20" fill="none" xmlns="http://www.w3.org/2000/svg" height="30">
<g id="noti-icon">
<g id="noti-icon_2">
<path id="Vector" d="M19.0825 16.0313C18.4876 15.5023 17.9668 14.896 17.5341 14.2285C17.0617 13.3071 16.7786 12.3009 16.7013 11.2689V8.22944C16.7054 6.60854 16.1159 5.04194 15.0436 3.82398C13.9713 2.60602 12.49 1.82054 10.878 1.61512V0.821406C10.878 0.603555 10.7912 0.394628 10.6368 0.240584C10.4823 0.0865408 10.2729 0 10.0544 0C9.83603 0 9.62656 0.0865408 9.47212 0.240584C9.31767 0.394628 9.23091 0.603555 9.23091 0.821406V1.62743C7.63334 1.84766 6.16992 2.63788 5.1117 3.85175C4.05348 5.06562 3.47215 6.62086 3.47541 8.22944V11.2689C3.39814 12.3009 3.11501 13.3071 2.64262 14.2285C2.21751 14.8944 1.70508 15.5007 1.11892 16.0313C1.05312 16.0889 1.00038 16.1599 0.964216 16.2395C0.928052 16.319 0.909291 16.4054 0.90918 16.4927V17.3295C0.90918 17.4927 0.974172 17.6492 1.08986 17.7646C1.20555 17.88 1.36245 17.9448 1.52606 17.9448H18.6754C18.839 17.9448 18.9959 17.88 19.1116 17.7646C19.2272 17.6492 19.2922 17.4927 19.2922 17.3295V16.4927C19.2921 16.4054 19.2734 16.319 19.2372 16.2395C19.201 16.1599 19.1483 16.0889 19.0825 16.0313ZM2.19229 16.7142C2.76624 16.1612 3.27159 15.5415 3.69748 14.8684C4.29253 13.7556 4.63973 12.5278 4.71534 11.2689V8.22944C4.69087 7.50835 4.81214 6.78972 5.07192 6.11634C5.3317 5.44297 5.72468 4.82863 6.22746 4.30989C6.73025 3.79115 7.33254 3.37863 7.99849 3.0969C8.66444 2.81516 9.38042 2.66997 10.1038 2.66997C10.8272 2.66997 11.5432 2.81516 12.2091 3.0969C12.875 3.37863 13.4773 3.79115 13.9801 4.30989C14.4829 4.82863 14.8759 5.44297 15.1357 6.11634C15.3954 6.78972 15.5167 7.50835 15.4923 8.22944V11.2689C15.5679 12.5278 15.9151 13.7556 16.5101 14.8684C16.936 15.5415 17.4413 16.1612 18.0153 16.7142H2.19229Z" fill="#004680"/>
<path id="Vector_2" d="M10.1315 20C10.52 19.9911 10.893 19.8454 11.1842 19.5886C11.4755 19.3319 11.6663 18.9807 11.723 18.5972H8.47821C8.53649 18.9911 8.73627 19.3506 9.04038 19.6086C9.34448 19.8667 9.73222 20.0058 10.1315 20V20Z" fill="#004680"/>
</g>
</g>
</svg>
