<svg viewBox="0 0 22 22" fill="none" xmlns="http://www.w3.org/2000/svg" height="30">
<path fill-rule="evenodd" clip-rule="evenodd" d="M14.3575 14.3584C14.4852 14.2305 14.6369 14.1291 14.8038 14.0599C14.9707 13.9907 15.1496 13.9551 15.3303 13.9551C15.511 13.9551 15.6899 13.9907 15.8569 14.0599C16.0238 14.1291 16.1754 14.2305 16.3031 14.3584L21.5968 19.6522C21.8548 19.91 21.9999 20.2598 22 20.6246C22.0001 20.9893 21.8553 21.3392 21.5975 21.5972C21.3397 21.8552 20.99 22.0002 20.6252 22.0004C20.2605 22.0005 19.9106 21.8557 19.6526 21.5979L14.3589 16.304C14.2311 16.1763 14.1296 16.0247 14.0604 15.8577C13.9912 15.6908 13.9556 15.5119 13.9556 15.3312C13.9556 15.1505 13.9912 14.9716 14.0604 14.8046C14.1296 14.6377 14.2311 14.4861 14.3589 14.3584H14.3575Z" fill="#004680"/>
<path fill-rule="evenodd" clip-rule="evenodd" d="M8.93743 16.5003C9.93055 16.5003 10.9139 16.3047 11.8315 15.9247C12.749 15.5446 13.5826 14.9876 14.2849 14.2853C14.9871 13.583 15.5442 12.7493 15.9242 11.8318C16.3043 10.9142 16.4999 9.93083 16.4999 8.93769C16.4999 7.94454 16.3043 6.96113 15.9242 6.04358C15.5442 5.12604 14.9871 4.29234 14.2849 3.59008C13.5826 2.88782 12.749 2.33076 11.8315 1.9507C10.9139 1.57064 9.93055 1.37503 8.93743 1.37503C6.93175 1.37503 5.00821 2.17181 3.58998 3.59008C2.17174 5.00835 1.37499 6.93194 1.37499 8.93769C1.37499 10.9434 2.17174 12.867 3.58998 14.2853C5.00821 15.7036 6.93175 16.5003 8.93743 16.5003V16.5003ZM17.8749 8.93769C17.8749 11.3081 16.9332 13.5814 15.2571 15.2576C13.5811 16.9337 11.3078 17.8754 8.93743 17.8754C6.56708 17.8754 4.29381 16.9337 2.61771 15.2576C0.941619 13.5814 0 11.3081 0 8.93769C0 6.56726 0.941619 4.29393 2.61771 2.61779C4.29381 0.941646 6.56708 0 8.93743 0C11.3078 0 13.5811 0.941646 15.2571 2.61779C16.9332 4.29393 17.8749 6.56726 17.8749 8.93769V8.93769Z" fill="#004680"/>
</svg>
