<svg viewBox="0 0 21 20" fill="none" xmlns="http://www.w3.org/2000/svg" height="30">
<path d="M10.2234 5.625C7.77956 5.625 5.83704 7.5625 5.83704 10C5.83704 12.4375 7.77956 14.375 10.2234 14.375C12.6672 14.375 14.6097 12.4375 14.6097 10C14.6097 7.5625 12.6672 5.625 10.2234 5.625ZM10.2234 13.125C8.46884 13.125 7.09028 11.75 7.09028 10C7.09028 8.25 8.46884 6.875 10.2234 6.875C11.9779 6.875 13.3565 8.25 13.3565 10C13.3565 11.75 11.9779 13.125 10.2234 13.125Z" fill="#004680"/>
<path d="M19.4345 7.9375L17.6799 7.375L17.3039 6.4375L18.1812 4.8125C18.3692 4.4375 18.3065 3.9375 17.9932 3.625L16.4893 2.125C16.176 1.8125 15.6747 1.75 15.2988 1.9375L13.6695 2.8125L12.7296 2.4375L12.1656 0.6875C12.0403 0.3125 11.6644 0 11.2257 0H9.0952C8.65657 0 8.2806 0.3125 8.21793 0.75L7.65398 2.5C7.278 2.5625 6.96469 2.6875 6.65138 2.875L5.02217 2C4.64619 1.8125 4.1449 1.875 3.83159 2.1875L2.3277 3.6875C2.01438 4 1.95172 4.5 2.13971 4.875L2.95432 6.4375C2.82899 6.75 2.70367 7.125 2.57834 7.4375L0.823805 8C0.447832 8.125 0.134521 8.5 0.134521 8.9375V11.0625C0.134521 11.5 0.447832 11.875 0.886467 12L2.64101 12.5625L3.01698 13.5L2.13971 15.125C1.95172 15.5 2.01438 16 2.3277 16.3125L3.83159 17.8125C4.1449 18.125 4.64619 18.1875 5.02217 18L6.65138 17.125L7.59131 17.5L8.15527 19.3125C8.2806 19.6875 8.65657 20 9.0952 20H11.2257C11.6644 20 12.0403 19.6875 12.1656 19.3125L12.7296 17.5L13.6695 17.125L15.2988 18C15.6747 18.1875 16.176 18.125 16.4893 17.8125L17.9932 16.3125C18.3065 16 18.3692 15.5 18.1812 15.125L17.3039 13.5L17.6799 12.5625L19.4971 12C19.8731 11.875 20.1864 11.5 20.1864 11.0625V8.9375C20.1864 8.5 19.8731 8.0625 19.4345 7.9375V7.9375ZM18.9332 10.875L16.6773 11.5625L16.6147 11.875L16.0507 13.1875L15.8627 13.5L16.9906 15.5625L15.7374 16.8125L13.6695 15.6875L13.3562 15.875C12.9176 16.125 12.479 16.3125 12.0403 16.4375L11.727 16.5L11.0377 18.75H9.28319L8.59391 16.5L8.2806 16.4375L6.96469 15.875L6.65138 15.6875L4.58353 16.8125L3.33029 15.5625L4.45821 13.5L4.27022 13.1875C4.01957 12.75 3.83159 12.3125 3.70626 11.875L3.6436 11.5625L1.38776 10.875V9.125L3.51828 8.5L3.6436 8.1875C3.76892 7.6875 3.95691 7.25 4.20756 6.8125L4.39555 6.5L3.33029 4.4375L4.58353 3.1875L6.58872 4.3125L6.90203 4.125C7.34066 3.875 7.7793 3.6875 8.2806 3.5625L8.59391 3.4375L9.28319 1.25H11.0377L11.727 3.4375L12.0403 3.5625C12.479 3.6875 12.9176 3.875 13.3562 4.125L13.6695 4.3125L15.7374 3.1875L16.9906 4.4375L15.8627 6.5L16.0507 6.8125C16.3013 7.25 16.4893 7.6875 16.6147 8.125L16.6773 8.4375L18.9332 9.125V10.875V10.875Z" fill="#004680"/>
</svg>
