<svg viewBox="0 0 165 180" fill="none" xmlns="http://www.w3.org/2000/svg">
<path d="M77.5075 178.929C80.1835 180.358 83.5421 180.358 86.2181 178.92C159.143 139.746 164.322 63.2073 164.258 41.4446C164.251 39.6955 163.734 37.9863 162.771 36.5265C161.807 35.0667 160.439 33.9195 158.833 33.2255L85.5536 0.777125C84.3876 0.263134 83.127 -0.00156048 81.8527 6.92053e-06C80.5784 0.00157432 79.3185 0.269368 78.1537 0.786226L5.40195 33.2437C3.82004 33.9356 2.47074 35.0682 1.51524 36.5063C0.559743 37.9444 0.0384361 39.6272 0.0135997 41.3536C-0.295866 63.0071 4.06395 139.709 77.5075 178.929ZM48.3904 69.1236L61.2605 56.2534L82.1313 77.1242L103.002 56.2534L115.872 69.1236L95.0014 89.9943L115.872 110.865L103.002 123.735L82.1313 102.864L61.2605 123.735L48.3904 110.865L69.2612 89.9943L48.3904 69.1236Z" fill="#F15E5E"/>
</svg>
